<?xml version="1.0" standalone="no"?>
<!DOCTYPE svg PUBLIC "-//W3C//DTD SVG 1.1//EN" "http://www.w3.org/Graphics/SVG/1.1/DTD/svg11.dtd">
<svg width="292mm" height="268mm" viewBox="-146 -265 292 268" xmlns="http://www.w3.org/2000/svg" version="1.1">
<title>OpenSCAD Model</title>
<path d="
M 24.6581,-132.375 L 141.568,-157.313 L 142.118,-157.44 L 142.649,-157.635 L 143.15,-157.895 L 143.615,-158.216
 L 144.037,-158.593 L 144.408,-159.019 L 144.722,-159.489 L 144.975,-159.994 L 145.163,-160.527 L 145.282,-161.08
 L 145.331,-161.642 L 145.31,-162.207 L 145.217,-162.765 L 122.605,-260.711 L 122.443,-261.253 L 122.215,-261.77
 L 121.924,-262.254 L 121.575,-262.698 L 121.172,-263.095 L 120.723,-263.438 L 120.235,-263.723 L 119.715,-263.943
 L 119.171,-264.097 L 118.612,-264.182 L 118.047,-264.196 L -118.047,-264.196 L -118.612,-264.182 L -119.171,-264.097
 L -119.715,-263.943 L -120.235,-263.723 L -120.723,-263.438 L -121.172,-263.095 L -121.575,-262.698 L -121.924,-262.254
 L -122.215,-261.77 L -122.443,-261.253 L -122.605,-260.711 L -145.217,-162.765 L -145.31,-162.207 L -145.331,-161.642
 L -145.282,-161.08 L -145.163,-160.527 L -144.975,-159.994 L -144.722,-159.489 L -144.408,-159.019 L -144.037,-158.593
 L -143.615,-158.216 L -143.15,-157.895 L -142.649,-157.635 L -142.118,-157.44 L -141.568,-157.313 L -24.6581,-132.375
 L -24.0959,-132.318 L 24.0959,-132.318 z
M -14.6775,-258.219 L -14.861,-258.262 L -15.0378,-258.327 L -15.205,-258.413 L -15.3601,-258.52 L -15.5005,-258.646
 L -15.6241,-258.788 L -15.7289,-258.944 L -15.8132,-259.113 L -15.8758,-259.291 L -15.9156,-259.475 L -15.932,-259.662
 L -15.9248,-259.851 L -15.894,-260.036 L -15.8402,-260.217 L -15.7642,-260.389 L -15.6672,-260.551 L -15.5507,-260.699
 L -15.4165,-260.831 L -15.2669,-260.945 L -15.1041,-261.04 L -14.9307,-261.114 L -14.7495,-261.165 L -14.5632,-261.193
 L -14.3749,-261.198 L -14.1875,-261.179 L -14.0039,-261.136 L -13.8271,-261.071 L -13.6599,-260.985 L -13.5049,-260.878
 L -13.3644,-260.752 L -13.2408,-260.61 L -13.136,-260.454 L -13.0517,-260.285 L -12.9891,-260.107 L -12.9493,-259.923
 L -12.9329,-259.736 L -12.9401,-259.547 L -12.9709,-259.362 L -13.0247,-259.181 L -13.1007,-259.009 L -13.1978,-258.847
 L -13.3143,-258.699 L -13.4484,-258.567 L -13.598,-258.453 L -13.7608,-258.358 L -13.9342,-258.284 L -14.1155,-258.233
 L -14.3017,-258.205 L -14.4901,-258.2 z
M -118.465,-258.219 L -118.648,-258.262 L -118.825,-258.327 L -118.992,-258.413 L -119.148,-258.52 L -119.288,-258.646
 L -119.412,-258.788 L -119.516,-258.944 L -119.601,-259.113 L -119.663,-259.291 L -119.703,-259.475 L -119.719,-259.662
 L -119.712,-259.851 L -119.681,-260.036 L -119.628,-260.217 L -119.552,-260.389 L -119.455,-260.551 L -119.338,-260.699
 L -119.204,-260.831 L -119.054,-260.945 L -118.892,-261.04 L -118.718,-261.114 L -118.537,-261.165 L -118.351,-261.193
 L -118.162,-261.198 L -117.975,-261.179 L -117.791,-261.136 L -117.615,-261.071 L -117.447,-260.985 L -117.292,-260.878
 L -117.152,-260.752 L -117.028,-260.61 L -116.923,-260.454 L -116.839,-260.285 L -116.777,-260.107 L -116.737,-259.923
 L -116.72,-259.736 L -116.728,-259.547 L -116.758,-259.362 L -116.812,-259.181 L -116.888,-259.009 L -116.985,-258.847
 L -117.102,-258.699 L -117.236,-258.567 L -117.385,-258.453 L -117.548,-258.358 L -117.722,-258.284 L -117.903,-258.233
 L -118.089,-258.205 L -118.277,-258.2 z
M 14.3017,-258.205 L 14.1155,-258.233 L 13.9342,-258.284 L 13.7608,-258.358 L 13.598,-258.453 L 13.4484,-258.567
 L 13.3143,-258.699 L 13.1978,-258.847 L 13.1007,-259.009 L 13.0247,-259.181 L 12.9709,-259.362 L 12.9401,-259.547
 L 12.9329,-259.736 L 12.9493,-259.923 L 12.9891,-260.107 L 13.0517,-260.285 L 13.136,-260.454 L 13.2408,-260.61
 L 13.3644,-260.752 L 13.5049,-260.878 L 13.6599,-260.985 L 13.8271,-261.071 L 14.0039,-261.136 L 14.1875,-261.179
 L 14.3749,-261.198 L 14.5632,-261.193 L 14.7495,-261.165 L 14.9307,-261.114 L 15.1041,-261.04 L 15.2669,-260.945
 L 15.4165,-260.831 L 15.5507,-260.699 L 15.6672,-260.551 L 15.7642,-260.389 L 15.8402,-260.217 L 15.894,-260.036
 L 15.9248,-259.851 L 15.932,-259.662 L 15.9156,-259.475 L 15.8758,-259.291 L 15.8132,-259.113 L 15.7289,-258.944
 L 15.6241,-258.788 L 15.5005,-258.646 L 15.3601,-258.52 L 15.205,-258.413 L 15.0378,-258.327 L 14.861,-258.262
 L 14.6775,-258.219 L 14.4901,-258.2 z
M 118.089,-258.205 L 117.903,-258.233 L 117.722,-258.284 L 117.548,-258.358 L 117.385,-258.453 L 117.236,-258.567
 L 117.102,-258.699 L 116.985,-258.847 L 116.888,-259.009 L 116.812,-259.181 L 116.758,-259.362 L 116.728,-259.547
 L 116.72,-259.736 L 116.737,-259.923 L 116.777,-260.107 L 116.839,-260.285 L 116.923,-260.454 L 117.028,-260.61
 L 117.152,-260.752 L 117.292,-260.878 L 117.447,-260.985 L 117.615,-261.071 L 117.791,-261.136 L 117.975,-261.179
 L 118.162,-261.198 L 118.351,-261.193 L 118.537,-261.165 L 118.718,-261.114 L 118.892,-261.04 L 119.054,-260.945
 L 119.204,-260.831 L 119.338,-260.699 L 119.455,-260.551 L 119.552,-260.389 L 119.628,-260.217 L 119.681,-260.036
 L 119.712,-259.851 L 119.719,-259.662 L 119.703,-259.475 L 119.663,-259.291 L 119.601,-259.113 L 119.516,-258.944
 L 119.412,-258.788 L 119.288,-258.646 L 119.148,-258.52 L 118.992,-258.413 L 118.825,-258.327 L 118.648,-258.262
 L 118.465,-258.219 L 118.277,-258.2 z
M -141.078,-160.273 L -141.261,-160.315 L -141.438,-160.38 L -141.605,-160.467 L -141.76,-160.574 L -141.901,-160.699
 L -142.024,-160.841 L -142.129,-160.998 L -142.213,-161.166 L -142.276,-161.344 L -142.316,-161.528 L -142.332,-161.716
 L -142.325,-161.904 L -142.294,-162.09 L -142.24,-162.27 L -142.164,-162.443 L -142.067,-162.604 L -141.951,-162.752
 L -141.817,-162.884 L -141.667,-162.999 L -141.504,-163.094 L -141.331,-163.167 L -141.15,-163.219 L -140.963,-163.247
 L -140.775,-163.251 L -140.588,-163.232 L -140.404,-163.19 L -140.227,-163.125 L -140.06,-163.038 L -139.905,-162.931
 L -139.765,-162.806 L -139.641,-162.663 L -139.536,-162.507 L -139.452,-162.339 L -139.389,-162.161 L -139.349,-161.977
 L -139.333,-161.789 L -139.34,-161.601 L -139.371,-161.415 L -139.425,-161.234 L -139.501,-161.062 L -139.598,-160.901
 L -139.714,-160.753 L -139.849,-160.62 L -139.998,-160.506 L -140.161,-160.411 L -140.334,-160.338 L -140.516,-160.286
 L -140.702,-160.258 L -140.89,-160.254 z
M 140.702,-160.258 L 140.516,-160.286 L 140.334,-160.338 L 140.161,-160.411 L 139.998,-160.506 L 139.849,-160.62
 L 139.714,-160.753 L 139.598,-160.901 L 139.501,-161.062 L 139.425,-161.234 L 139.371,-161.415 L 139.34,-161.601
 L 139.333,-161.789 L 139.349,-161.977 L 139.389,-162.161 L 139.452,-162.339 L 139.536,-162.507 L 139.641,-162.663
 L 139.765,-162.806 L 139.905,-162.931 L 140.06,-163.038 L 140.227,-163.125 L 140.404,-163.19 L 140.588,-163.232
 L 140.775,-163.251 L 140.963,-163.247 L 141.15,-163.219 L 141.331,-163.167 L 141.504,-163.094 L 141.667,-162.999
 L 141.817,-162.884 L 141.951,-162.752 L 142.067,-162.604 L 142.164,-162.443 L 142.24,-162.27 L 142.294,-162.09
 L 142.325,-161.904 L 142.332,-161.716 L 142.316,-161.528 L 142.276,-161.344 L 142.213,-161.166 L 142.129,-160.998
 L 142.024,-160.841 L 141.901,-160.699 L 141.76,-160.574 L 141.605,-160.467 L 141.438,-160.38 L 141.261,-160.315
 L 141.078,-160.273 L 140.89,-160.254 z
M -24.1681,-135.335 L -24.3517,-135.377 L -24.5284,-135.442 L -24.6957,-135.529 L -24.8507,-135.636 L -24.9912,-135.761
 L -25.1147,-135.903 L -25.2195,-136.06 L -25.3039,-136.228 L -25.3665,-136.406 L -25.4063,-136.59 L -25.4227,-136.778
 L -25.4155,-136.966 L -25.3847,-137.152 L -25.3309,-137.332 L -25.2548,-137.505 L -25.1578,-137.666 L -25.0413,-137.814
 L -24.9072,-137.946 L -24.7576,-138.061 L -24.5948,-138.156 L -24.4214,-138.229 L -24.2401,-138.28 L -24.0539,-138.309
 L -23.8655,-138.313 L -23.6781,-138.294 L -23.4946,-138.252 L -23.3178,-138.187 L -23.1506,-138.1 L -22.9955,-137.993
 L -22.8551,-137.868 L -22.7315,-137.725 L -22.6267,-137.569 L -22.5424,-137.4 L -22.4798,-137.223 L -22.44,-137.039
 L -22.4236,-136.851 L -22.4308,-136.663 L -22.4616,-136.477 L -22.5154,-136.296 L -22.5914,-136.124 L -22.6884,-135.963
 L -22.8049,-135.815 L -22.939,-135.682 L -23.0887,-135.568 L -23.2515,-135.473 L -23.4249,-135.4 L -23.6061,-135.348
 L -23.7924,-135.32 L -23.9807,-135.315 z
M 23.7924,-135.32 L 23.6061,-135.348 L 23.4249,-135.4 L 23.2515,-135.473 L 23.0887,-135.568 L 22.939,-135.682
 L 22.8049,-135.815 L 22.6884,-135.963 L 22.5914,-136.124 L 22.5154,-136.296 L 22.4616,-136.477 L 22.4308,-136.663
 L 22.4236,-136.851 L 22.44,-137.039 L 22.4798,-137.223 L 22.5424,-137.4 L 22.6267,-137.569 L 22.7315,-137.725
 L 22.8551,-137.868 L 22.9955,-137.993 L 23.1506,-138.1 L 23.3178,-138.187 L 23.4946,-138.252 L 23.6781,-138.294
 L 23.8655,-138.313 L 24.0539,-138.309 L 24.2401,-138.28 L 24.4214,-138.229 L 24.5948,-138.156 L 24.7576,-138.061
 L 24.9072,-137.946 L 25.0413,-137.814 L 25.1578,-137.666 L 25.2548,-137.505 L 25.3309,-137.332 L 25.3847,-137.152
 L 25.4155,-136.966 L 25.4227,-136.778 L 25.4063,-136.59 L 25.3665,-136.406 L 25.3039,-136.228 L 25.2195,-136.06
 L 25.1147,-135.903 L 24.9912,-135.761 L 24.8507,-135.636 L 24.6957,-135.529 L 24.5284,-135.442 L 24.3517,-135.377
 L 24.1681,-135.335 L 23.9807,-135.315 z
M 24.6581,2.6252 L 141.568,-22.3129 L 142.118,-22.44 L 142.649,-22.6351 L 143.15,-22.8952 L 143.615,-23.2161
 L 144.037,-23.5927 L 144.408,-24.0192 L 144.722,-24.4888 L 144.975,-24.9941 L 145.163,-25.5272 L 145.282,-26.0795
 L 145.331,-26.6425 L 145.31,-27.2072 L 145.217,-27.7647 L 122.605,-125.711 L 122.443,-126.253 L 122.215,-126.77
 L 121.924,-127.254 L 121.575,-127.698 L 121.172,-128.095 L 120.723,-128.438 L 120.235,-128.723 L 119.715,-128.943
 L 119.171,-129.097 L 118.612,-129.182 L 118.047,-129.196 L -118.047,-129.196 L -118.612,-129.182 L -119.171,-129.097
 L -119.715,-128.943 L -120.235,-128.723 L -120.723,-128.438 L -121.172,-128.095 L -121.575,-127.698 L -121.924,-127.254
 L -122.215,-126.77 L -122.443,-126.253 L -122.605,-125.711 L -145.217,-27.7647 L -145.31,-27.2072 L -145.331,-26.6425
 L -145.282,-26.0795 L -145.163,-25.5272 L -144.975,-24.9941 L -144.722,-24.4888 L -144.408,-24.0192 L -144.037,-23.5927
 L -143.615,-23.2161 L -143.15,-22.8952 L -142.649,-22.6351 L -142.118,-22.44 L -141.568,-22.3129 L -24.6581,2.6252
 L -24.0959,2.68231 L 24.0959,2.68231 z
M 118.089,-123.205 L 117.903,-123.233 L 117.722,-123.284 L 117.548,-123.358 L 117.385,-123.453 L 117.236,-123.567
 L 117.102,-123.699 L 116.985,-123.847 L 116.888,-124.009 L 116.812,-124.181 L 116.758,-124.362 L 116.728,-124.547
 L 116.72,-124.736 L 116.737,-124.923 L 116.777,-125.107 L 116.839,-125.285 L 116.923,-125.454 L 117.028,-125.61
 L 117.152,-125.752 L 117.292,-125.878 L 117.447,-125.985 L 117.615,-126.071 L 117.791,-126.136 L 117.975,-126.179
 L 118.162,-126.198 L 118.351,-126.193 L 118.537,-126.165 L 118.718,-126.114 L 118.892,-126.04 L 119.054,-125.945
 L 119.204,-125.831 L 119.338,-125.699 L 119.455,-125.551 L 119.552,-125.389 L 119.628,-125.217 L 119.681,-125.036
 L 119.712,-124.851 L 119.719,-124.662 L 119.703,-124.475 L 119.663,-124.291 L 119.601,-124.113 L 119.516,-123.944
 L 119.412,-123.788 L 119.288,-123.646 L 119.148,-123.52 L 118.992,-123.413 L 118.825,-123.327 L 118.648,-123.262
 L 118.465,-123.219 L 118.277,-123.2 z
M -14.6775,-123.219 L -14.861,-123.262 L -15.0378,-123.327 L -15.205,-123.413 L -15.3601,-123.52 L -15.5005,-123.646
 L -15.6241,-123.788 L -15.7289,-123.944 L -15.8132,-124.113 L -15.8758,-124.291 L -15.9156,-124.475 L -15.932,-124.662
 L -15.9248,-124.851 L -15.894,-125.036 L -15.8402,-125.217 L -15.7642,-125.389 L -15.6672,-125.551 L -15.5507,-125.699
 L -15.4165,-125.831 L -15.2669,-125.945 L -15.1041,-126.04 L -14.9307,-126.114 L -14.7495,-126.165 L -14.5632,-126.193
 L -14.3749,-126.198 L -14.1875,-126.179 L -14.0039,-126.136 L -13.8271,-126.071 L -13.6599,-125.985 L -13.5049,-125.878
 L -13.3644,-125.752 L -13.2408,-125.61 L -13.136,-125.454 L -13.0517,-125.285 L -12.9891,-125.107 L -12.9493,-124.923
 L -12.9329,-124.736 L -12.9401,-124.547 L -12.9709,-124.362 L -13.0247,-124.181 L -13.1007,-124.009 L -13.1978,-123.847
 L -13.3143,-123.699 L -13.4484,-123.567 L -13.598,-123.453 L -13.7608,-123.358 L -13.9342,-123.284 L -14.1155,-123.233
 L -14.3017,-123.205 L -14.4901,-123.2 z
M 14.3017,-123.205 L 14.1155,-123.233 L 13.9342,-123.284 L 13.7608,-123.358 L 13.598,-123.453 L 13.4484,-123.567
 L 13.3143,-123.699 L 13.1978,-123.847 L 13.1007,-124.009 L 13.0247,-124.181 L 12.9709,-124.362 L 12.9401,-124.547
 L 12.9329,-124.736 L 12.9493,-124.923 L 12.9891,-125.107 L 13.0517,-125.285 L 13.136,-125.454 L 13.2408,-125.61
 L 13.3644,-125.752 L 13.5049,-125.878 L 13.6599,-125.985 L 13.8271,-126.071 L 14.0039,-126.136 L 14.1875,-126.179
 L 14.3749,-126.198 L 14.5632,-126.193 L 14.7495,-126.165 L 14.9307,-126.114 L 15.1041,-126.04 L 15.2669,-125.945
 L 15.4165,-125.831 L 15.5507,-125.699 L 15.6672,-125.551 L 15.7642,-125.389 L 15.8402,-125.217 L 15.894,-125.036
 L 15.9248,-124.851 L 15.932,-124.662 L 15.9156,-124.475 L 15.8758,-124.291 L 15.8132,-124.113 L 15.7289,-123.944
 L 15.6241,-123.788 L 15.5005,-123.646 L 15.3601,-123.52 L 15.205,-123.413 L 15.0378,-123.327 L 14.861,-123.262
 L 14.6775,-123.219 L 14.4901,-123.2 z
M -118.465,-123.219 L -118.648,-123.262 L -118.825,-123.327 L -118.992,-123.413 L -119.148,-123.52 L -119.288,-123.646
 L -119.412,-123.788 L -119.516,-123.944 L -119.601,-124.113 L -119.663,-124.291 L -119.703,-124.475 L -119.719,-124.662
 L -119.712,-124.851 L -119.681,-125.036 L -119.628,-125.217 L -119.552,-125.389 L -119.455,-125.551 L -119.338,-125.699
 L -119.204,-125.831 L -119.054,-125.945 L -118.892,-126.04 L -118.718,-126.114 L -118.537,-126.165 L -118.351,-126.193
 L -118.162,-126.198 L -117.975,-126.179 L -117.791,-126.136 L -117.615,-126.071 L -117.447,-125.985 L -117.292,-125.878
 L -117.152,-125.752 L -117.028,-125.61 L -116.923,-125.454 L -116.839,-125.285 L -116.777,-125.107 L -116.737,-124.923
 L -116.72,-124.736 L -116.728,-124.547 L -116.758,-124.362 L -116.812,-124.181 L -116.888,-124.009 L -116.985,-123.847
 L -117.102,-123.699 L -117.236,-123.567 L -117.385,-123.453 L -117.548,-123.358 L -117.722,-123.284 L -117.903,-123.233
 L -118.089,-123.205 L -118.277,-123.2 z
M 83.9379,-103.169 L 83.1459,-102.987 L 82.3586,-106.397 L 83.1505,-106.58 L 82.0238,-111.46 L 81.2318,-111.277
 L 80.4445,-114.688 L 81.2364,-114.871 L 81.0159,-115.826 L 94.6278,-118.969 L 94.8483,-118.013 L 95.6403,-118.196
 L 96.4277,-114.786 L 95.6357,-114.603 L 96.7625,-109.722 L 97.5544,-109.905 L 98.3418,-106.495 L 97.5498,-106.312
 L 97.7704,-105.357 L 84.1584,-102.214 z
M -97.7704,-105.357 L -97.5498,-106.312 L -98.3418,-106.495 L -97.5544,-109.905 L -96.7625,-109.722 L -95.6357,-114.603
 L -96.4277,-114.786 L -95.6403,-118.196 L -94.8483,-118.013 L -94.6278,-118.969 L -81.0159,-115.826 L -81.2364,-114.871
 L -80.4445,-114.688 L -81.2318,-111.277 L -82.0238,-111.46 L -83.1505,-106.58 L -82.3586,-106.397 L -83.1459,-102.987
 L -83.9379,-103.169 L -84.1584,-102.214 z
M 103.576,-102.572 L 102.784,-102.389 L 101.996,-105.799 L 102.788,-105.982 L 101.662,-110.863 L 100.87,-110.68
 L 100.082,-114.09 L 100.874,-114.273 L 100.654,-115.228 L 114.266,-118.371 L 114.486,-117.415 L 115.278,-117.598
 L 116.065,-114.188 L 115.273,-114.005 L 116.4,-109.125 L 117.192,-109.307 L 117.98,-105.897 L 117.188,-105.714
 L 117.408,-104.759 L 103.796,-101.616 z
M -117.408,-104.759 L -117.188,-105.714 L -117.98,-105.897 L -117.192,-109.307 L -116.4,-109.125 L -115.273,-114.005
 L -116.065,-114.188 L -115.278,-117.598 L -114.486,-117.415 L -114.266,-118.371 L -100.654,-115.228 L -100.874,-114.273
 L -100.082,-114.09 L -100.87,-110.68 L -101.662,-110.863 L -102.788,-105.982 L -101.996,-105.799 L -102.784,-102.389
 L -103.576,-102.572 L -103.796,-101.616 z
M 64.75,-101.818 L 63.958,-101.636 L 63.1707,-105.046 L 63.9626,-105.229 L 62.8359,-110.109 L 62.0439,-109.926
 L 61.2566,-113.337 L 62.0485,-113.52 L 61.828,-114.475 L 75.4399,-117.618 L 75.6605,-116.662 L 76.4524,-116.845
 L 77.2398,-113.435 L 76.4478,-113.252 L 77.5746,-108.371 L 78.3665,-108.554 L 79.1539,-105.144 L 78.3619,-104.961
 L 78.5825,-104.006 L 64.9706,-100.863 z
M -78.5825,-104.006 L -78.3619,-104.961 L -79.1539,-105.144 L -78.3665,-108.554 L -77.5746,-108.371 L -76.4478,-113.252
 L -77.2398,-113.435 L -76.4524,-116.845 L -75.6605,-116.662 L -75.4399,-117.618 L -61.828,-114.475 L -62.0485,-113.52
 L -61.2566,-113.337 L -62.0439,-109.926 L -62.8359,-110.109 L -63.9626,-105.229 L -63.1707,-105.046 L -63.958,-101.636
 L -64.75,-101.818 L -64.9706,-100.863 z
M -59.3946,-102.655 L -59.174,-103.61 L -59.966,-103.793 L -59.1787,-107.203 L -58.3867,-107.02 L -57.2599,-111.901
 L -58.0519,-112.084 L -57.2646,-115.494 L -56.4726,-115.311 L -56.252,-116.267 L -42.6401,-113.124 L -42.8607,-112.169
 L -42.0687,-111.986 L -42.856,-108.576 L -43.648,-108.758 L -44.7748,-103.878 L -43.9828,-103.695 L -44.7701,-100.285
 L -45.5621,-100.467 L -45.7827,-99.5122 z
M 45.5621,-100.467 L 44.7701,-100.285 L 43.9828,-103.695 L 44.7748,-103.878 L 43.648,-108.758 L 42.856,-108.576
 L 42.0687,-111.986 L 42.8607,-112.169 L 42.6401,-113.124 L 56.252,-116.267 L 56.4726,-115.311 L 57.2646,-115.494
 L 58.0519,-112.084 L 57.2599,-111.901 L 58.3867,-107.02 L 59.1787,-107.203 L 59.966,-103.793 L 59.174,-103.61
 L 59.3946,-102.655 L 45.7827,-99.5122 z
M -41.7814,-94.4832 L -41.5608,-95.4385 L -42.3528,-95.6213 L -41.5654,-99.0317 L -40.7735,-98.8489 L -39.6467,-103.729
 L -40.4387,-103.912 L -39.6513,-107.323 L -38.8594,-107.14 L -38.6388,-108.095 L -25.0269,-104.953 L -25.2474,-103.997
 L -24.4555,-103.814 L -25.2428,-100.404 L -26.0348,-100.587 L -27.1615,-95.7063 L -26.3696,-95.5235 L -27.1569,-92.1131
 L -27.9489,-92.2959 L -28.1694,-91.3406 z
M 27.9489,-92.2959 L 27.1569,-92.1131 L 26.3696,-95.5235 L 27.1615,-95.7063 L 26.0348,-100.587 L 25.2428,-100.404
 L 24.4555,-103.814 L 25.2474,-103.997 L 25.0269,-104.953 L 38.6388,-108.095 L 38.8594,-107.14 L 39.6513,-107.323
 L 40.4387,-103.912 L 39.6467,-103.729 L 40.7735,-98.8489 L 41.5654,-99.0317 L 42.3528,-95.6213 L 41.5608,-95.4385
 L 41.7814,-94.4832 L 28.1694,-91.3406 z
M 10.1107,-85.0987 L 9.31874,-84.9159 L 8.53139,-88.3263 L 9.32336,-88.5091 L 8.19661,-93.3896 L 7.40463,-93.2068
 L 6.61728,-96.6172 L 7.40926,-96.8 L 7.18871,-97.7554 L 20.8006,-100.898 L 21.0212,-99.9426 L 21.8132,-100.125
 L 22.6005,-96.715 L 21.8085,-96.5322 L 22.9353,-91.6517 L 23.7272,-91.8345 L 24.5146,-88.4241 L 23.7226,-88.2413
 L 23.9432,-87.286 L 10.3313,-84.1434 z
M -23.9432,-87.286 L -23.7226,-88.2413 L -24.5146,-88.4241 L -23.7272,-91.8345 L -22.9353,-91.6517 L -21.8085,-96.5322
 L -22.6005,-96.715 L -21.8132,-100.125 L -21.0212,-99.9426 L -20.8006,-100.898 L -7.18871,-97.7554 L -7.40926,-96.8
 L -6.61728,-96.6172 L -7.40463,-93.2068 L -8.19661,-93.3896 L -9.32336,-88.5091 L -8.53139,-88.3263 L -9.31874,-84.9159
 L -10.1107,-85.0987 L -10.3313,-84.1434 z
M -102.044,-86.8436 L -101.824,-87.7989 L -102.616,-87.9818 L -101.828,-91.3922 L -101.037,-91.2093 L -99.9098,-96.0898
 L -100.702,-96.2727 L -99.9144,-99.6831 L -99.1224,-99.5002 L -98.9019,-100.456 L -85.2899,-97.313 L -85.5105,-96.3577
 L -84.7185,-96.1748 L -85.5059,-92.7644 L -86.2979,-92.9473 L -87.4246,-88.0668 L -86.6326,-87.8839 L -87.42,-84.4735
 L -88.212,-84.6564 L -88.4325,-83.701 z
M 88.212,-84.6564 L 87.42,-84.4735 L 86.6326,-87.8839 L 87.4246,-88.0668 L 86.2979,-92.9473 L 85.5059,-92.7644
 L 84.7185,-96.1748 L 85.5105,-96.3577 L 85.2899,-97.313 L 98.9019,-100.456 L 99.1224,-99.5002 L 99.9144,-99.6831
 L 100.702,-96.2727 L 99.9098,-96.0898 L 101.037,-91.2093 L 101.828,-91.3922 L 102.616,-87.9818 L 101.824,-87.7989
 L 102.044,-86.8436 L 88.4325,-83.701 z
M -121.682,-86.2458 L -121.462,-87.2011 L -122.254,-87.384 L -121.466,-90.7944 L -120.674,-90.6115 L -119.548,-95.4921
 L -120.34,-95.6749 L -119.552,-99.0853 L -118.76,-98.9024 L -118.54,-99.8578 L -104.928,-96.7152 L -105.148,-95.7599
 L -104.356,-95.577 L -105.144,-92.1666 L -105.936,-92.3495 L -107.062,-87.469 L -106.27,-87.2861 L -107.058,-83.8757
 L -107.85,-84.0586 L -108.07,-83.1033 z
M 107.85,-84.0586 L 107.058,-83.8757 L 106.27,-87.2861 L 107.062,-87.469 L 105.936,-92.3495 L 105.144,-92.1666
 L 104.356,-95.577 L 105.148,-95.7599 L 104.928,-96.7152 L 118.54,-99.8578 L 118.76,-98.9024 L 119.552,-99.0853
 L 120.34,-95.6749 L 119.548,-95.4921 L 120.674,-90.6115 L 121.466,-90.7944 L 122.254,-87.384 L 121.462,-87.2011
 L 121.682,-86.2458 L 108.07,-83.1033 z
M 69.0241,-83.3054 L 68.2321,-83.1226 L 67.4447,-86.533 L 68.2367,-86.7158 L 67.11,-91.5963 L 66.318,-91.4135
 L 65.5306,-94.8239 L 66.3226,-95.0067 L 66.1021,-95.962 L 79.714,-99.1046 L 79.9345,-98.1493 L 80.7265,-98.3321
 L 81.5139,-94.9217 L 80.7219,-94.7389 L 81.8486,-89.8584 L 82.6406,-90.0412 L 83.428,-86.6308 L 82.636,-86.448
 L 82.8565,-85.4926 L 69.2446,-82.3501 z
M -82.8565,-85.4926 L -82.636,-86.448 L -83.428,-86.6308 L -82.6406,-90.0412 L -81.8486,-89.8584 L -80.7219,-94.7389
 L -81.5139,-94.9217 L -80.7265,-98.3321 L -79.9345,-98.1493 L -79.714,-99.1046 L -66.1021,-95.962 L -66.3226,-95.0067
 L -65.5306,-94.8239 L -66.318,-91.4135 L -67.11,-91.5963 L -68.2367,-86.7158 L -67.4447,-86.533 L -68.2321,-83.1226
 L -69.0241,-83.3054 L -69.2446,-82.3501 z
M 49.8362,-81.9544 L 49.0442,-81.7716 L 48.2569,-85.182 L 49.0488,-85.3648 L 47.9221,-90.2453 L 47.1301,-90.0625
 L 46.3428,-93.4729 L 47.1347,-93.6557 L 46.9142,-94.6111 L 60.5261,-97.7536 L 60.7467,-96.7983 L 61.5386,-96.9811
 L 62.326,-93.5707 L 61.534,-93.3879 L 62.6608,-88.5074 L 63.4527,-88.6902 L 64.2401,-85.2798 L 63.4481,-85.097
 L 63.6687,-84.1417 L 50.0567,-80.9991 z
M -63.6687,-84.1417 L -63.4481,-85.097 L -64.2401,-85.2798 L -63.4527,-88.6902 L -62.6608,-88.5074 L -61.534,-93.3879
 L -62.326,-93.5707 L -61.5386,-96.9811 L -60.7467,-96.7983 L -60.5261,-97.7536 L -46.9142,-94.6111 L -47.1347,-93.6557
 L -46.3428,-93.4729 L -47.1301,-90.0625 L -47.9221,-90.2453 L -49.0488,-85.3648 L -48.2569,-85.182 L -49.0442,-81.7716
 L -49.8362,-81.9544 L -50.0567,-80.9991 z
M 32.223,-73.7829 L 31.431,-73.6001 L 30.6436,-77.0105 L 31.4356,-77.1933 L 30.3089,-82.0738 L 29.5169,-81.8909
 L 28.7295,-85.3013 L 29.5215,-85.4842 L 29.3009,-86.4395 L 42.9129,-89.5821 L 43.1334,-88.6268 L 43.9254,-88.8096
 L 44.7128,-85.3992 L 43.9208,-85.2164 L 45.0475,-80.3358 L 45.8395,-80.5187 L 46.6269,-77.1083 L 45.8349,-76.9254
 L 46.0554,-75.9701 L 32.4435,-72.8276 z
M -46.0554,-75.9701 L -45.8349,-76.9254 L -46.6269,-77.1083 L -45.8395,-80.5187 L -45.0475,-80.3358 L -43.9208,-85.2164
 L -44.7128,-85.3992 L -43.9254,-88.8096 L -43.1334,-88.6268 L -42.9129,-89.5821 L -29.3009,-86.4395 L -29.5215,-85.4842
 L -28.7295,-85.3013 L -29.5169,-81.8909 L -30.3089,-82.0738 L -31.4356,-77.1933 L -30.6436,-77.0105 L -31.431,-73.6001
 L -32.223,-73.7829 L -32.4435,-72.8276 z
M -28.2173,-68.773 L -27.9967,-69.7283 L -28.7887,-69.9111 L -28.0013,-73.3215 L -27.2094,-73.1387 L -26.0826,-78.0192
 L -26.8746,-78.202 L -26.0872,-81.6124 L -25.2952,-81.4296 L -25.0747,-82.3849 L -11.4628,-79.2423 L -11.6833,-78.287
 L -10.8914,-78.1042 L -11.6787,-74.6938 L -12.4707,-74.8766 L -13.5974,-69.9961 L -12.8055,-69.8133 L -13.5928,-66.4029
 L -14.3848,-66.5857 L -14.6053,-65.6304 z
M 14.3848,-66.5857 L 13.5928,-66.4029 L 12.8055,-69.8133 L 13.5974,-69.9961 L 12.4707,-74.8766 L 11.6787,-74.6938
 L 10.8914,-78.1042 L 11.6833,-78.287 L 11.4628,-79.2423 L 25.0747,-82.3849 L 25.2952,-81.4296 L 26.0872,-81.6124
 L 26.8746,-78.202 L 26.0826,-78.0192 L 27.2094,-73.1387 L 28.0013,-73.3215 L 28.7887,-69.9111 L 27.9967,-69.7283
 L 28.2173,-68.773 L 14.6053,-65.6304 z
M -106.318,-68.3306 L -106.098,-69.2859 L -106.89,-69.4687 L -106.103,-72.8791 L -105.311,-72.6963 L -104.184,-77.5768
 L -104.976,-77.7596 L -104.188,-81.17 L -103.396,-80.9872 L -103.176,-81.9425 L -89.564,-78.7999 L -89.7846,-77.8446
 L -88.9926,-77.6618 L -89.78,-74.2514 L -90.5719,-74.4342 L -91.6987,-69.5537 L -90.9067,-69.3709 L -91.6941,-65.9605
 L -92.486,-66.1433 L -92.7066,-65.188 z
M 92.486,-66.1433 L 91.6941,-65.9605 L 90.9067,-69.3709 L 91.6987,-69.5537 L 90.5719,-74.4342 L 89.78,-74.2514
 L 88.9926,-77.6618 L 89.7846,-77.8446 L 89.564,-78.7999 L 103.176,-81.9425 L 103.396,-80.9872 L 104.188,-81.17
 L 104.976,-77.7596 L 104.184,-77.5768 L 105.311,-72.6963 L 106.103,-72.8791 L 106.89,-69.4687 L 106.098,-69.2859
 L 106.318,-68.3306 L 92.7066,-65.188 z
M -125.956,-67.7328 L -125.736,-68.6881 L -126.528,-68.871 L -125.74,-72.2814 L -124.948,-72.0985 L -123.822,-76.979
 L -124.614,-77.1618 L -123.826,-80.5723 L -123.034,-80.3894 L -122.814,-81.3447 L -109.202,-78.2022 L -109.422,-77.2469
 L -108.63,-77.064 L -109.418,-73.6536 L -110.21,-73.8365 L -111.336,-68.9559 L -110.544,-68.7731 L -111.332,-65.3627
 L -112.124,-65.5455 L -112.344,-64.5902 z
M 112.124,-65.5455 L 111.332,-65.3627 L 110.544,-68.7731 L 111.336,-68.9559 L 110.21,-73.8365 L 109.418,-73.6536
 L 108.63,-77.064 L 109.422,-77.2469 L 109.202,-78.2022 L 122.814,-81.3447 L 123.034,-80.3894 L 123.826,-80.5723
 L 124.614,-77.1618 L 123.822,-76.979 L 124.948,-72.0985 L 125.74,-72.2814 L 126.528,-68.871 L 125.736,-68.6881
 L 125.956,-67.7328 L 112.344,-64.5902 z
M 73.2981,-64.7924 L 72.5062,-64.6095 L 71.7188,-68.0199 L 72.5108,-68.2028 L 71.384,-73.0833 L 70.5921,-72.9004
 L 69.8047,-76.3108 L 70.5967,-76.4937 L 70.3761,-77.449 L 83.9881,-80.5915 L 84.2086,-79.6362 L 85.0006,-79.8191
 L 85.7879,-76.4087 L 84.996,-76.2258 L 86.1227,-71.3453 L 86.9147,-71.5282 L 87.702,-68.1178 L 86.9101,-67.9349
 L 87.1306,-66.9796 L 73.5187,-63.8371 z
M -87.1306,-66.9796 L -86.9101,-67.9349 L -87.702,-68.1178 L -86.9147,-71.5282 L -86.1227,-71.3453 L -84.996,-76.2258
 L -85.7879,-76.4087 L -85.0006,-79.8191 L -84.2086,-79.6362 L -83.9881,-80.5915 L -70.3761,-77.449 L -70.5967,-76.4937
 L -69.8047,-76.3108 L -70.5921,-72.9004 L -71.384,-73.0833 L -72.5108,-68.2028 L -71.7188,-68.0199 L -72.5062,-64.6095
 L -73.2981,-64.7924 L -73.5187,-63.8371 z
M 54.1103,-63.4414 L 53.3183,-63.2586 L 52.5309,-66.669 L 53.3229,-66.8518 L 52.1962,-71.7323 L 51.4042,-71.5495
 L 50.6168,-74.9599 L 51.4088,-75.1427 L 51.1882,-76.098 L 64.8002,-79.2406 L 65.0207,-78.2853 L 65.8127,-78.4681
 L 66.6001,-75.0577 L 65.8081,-74.8749 L 66.9348,-69.9944 L 67.7268,-70.1772 L 68.5142,-66.7668 L 67.7222,-66.584
 L 67.9427,-65.6287 L 54.3308,-62.4861 z
M -67.9427,-65.6287 L -67.7222,-66.584 L -68.5142,-66.7668 L -67.7268,-70.1772 L -66.9348,-69.9944 L -65.8081,-74.8749
 L -66.6001,-75.0577 L -65.8127,-78.4681 L -65.0207,-78.2853 L -64.8002,-79.2406 L -51.1882,-76.098 L -51.4088,-75.1427
 L -50.6168,-74.9599 L -51.4042,-71.5495 L -52.1962,-71.7323 L -53.3229,-66.8518 L -52.5309,-66.669 L -53.3183,-63.2586
 L -54.1103,-63.4414 L -54.3308,-62.4861 z
M -50.3295,-57.4571 L -50.1089,-58.4124 L -50.9009,-58.5953 L -50.1136,-62.0057 L -49.3216,-61.8228 L -48.1948,-66.7033
 L -48.9868,-66.8862 L -48.1995,-70.2966 L -47.4075,-70.1137 L -47.187,-71.069 L -33.575,-67.9265 L -33.7956,-66.9712
 L -33.0036,-66.7883 L -33.791,-63.3779 L -34.5829,-63.5608 L -35.7097,-58.6803 L -34.9177,-58.4974 L -35.7051,-55.087
 L -36.497,-55.2699 L -36.7176,-54.3145 z
M 36.497,-55.2699 L 35.7051,-55.087 L 34.9177,-58.4974 L 35.7097,-58.6803 L 34.5829,-63.5608 L 33.791,-63.3779
 L 33.0036,-66.7883 L 33.7956,-66.9712 L 33.575,-67.9265 L 47.187,-71.069 L 47.4075,-70.1137 L 48.1995,-70.2966
 L 48.9868,-66.8862 L 48.1948,-66.7033 L 49.3216,-61.8228 L 50.1136,-62.0057 L 50.9009,-58.5953 L 50.1089,-58.4124
 L 50.3295,-57.4571 L 36.7176,-54.3145 z
M -32.4913,-50.2599 L -32.2708,-51.2152 L -33.0627,-51.3981 L -32.2754,-54.8085 L -31.4834,-54.6256 L -30.3567,-59.5061
 L -31.1486,-59.689 L -30.3613,-63.0994 L -29.5693,-62.9165 L -29.3488,-63.8719 L -15.7368,-60.7293 L -15.9574,-59.774
 L -15.1654,-59.5911 L -15.9528,-56.1807 L -16.7448,-56.3636 L -17.8715,-51.4831 L -17.0795,-51.3002 L -17.8669,-47.8898
 L -18.6589,-48.0727 L -18.8794,-47.1174 z
M 18.6589,-48.0727 L 17.8669,-47.8898 L 17.0795,-51.3002 L 17.8715,-51.4831 L 16.7448,-56.3636 L 15.9528,-56.1807
 L 15.1654,-59.5911 L 15.9574,-59.774 L 15.7368,-60.7293 L 29.3488,-63.8719 L 29.5693,-62.9165 L 30.3613,-63.0994
 L 31.1486,-59.689 L 30.3567,-59.5061 L 31.4834,-54.6256 L 32.2754,-54.8085 L 33.0627,-51.3981 L 32.2708,-51.2152
 L 32.4913,-50.2599 L 18.8794,-47.1174 z
M 96.7601,-47.6303 L 95.9681,-47.4475 L 95.1808,-50.8579 L 95.9727,-51.0407 L 94.846,-55.9212 L 94.054,-55.7384
 L 93.2667,-59.1488 L 94.0586,-59.3316 L 93.8381,-60.2869 L 107.45,-63.4295 L 107.671,-62.4742 L 108.463,-62.657
 L 109.25,-59.2466 L 108.458,-59.0638 L 109.585,-54.1833 L 110.377,-54.3661 L 111.164,-50.9557 L 110.372,-50.7729
 L 110.593,-49.8176 L 96.9807,-46.675 z
M -110.593,-49.8176 L -110.372,-50.7729 L -111.164,-50.9557 L -110.377,-54.3661 L -109.585,-54.1833 L -108.458,-59.0638
 L -109.25,-59.2466 L -108.463,-62.657 L -107.671,-62.4742 L -107.45,-63.4295 L -93.8381,-60.2869 L -94.0586,-59.3316
 L -93.2667,-59.1488 L -94.054,-55.7384 L -94.846,-55.9212 L -95.9727,-51.0407 L -95.1808,-50.8579 L -95.9681,-47.4475
 L -96.7601,-47.6303 L -96.9807,-46.675 z
M -130.23,-49.2198 L -130.01,-50.1751 L -130.802,-50.3579 L -130.014,-53.7683 L -129.222,-53.5855 L -128.096,-58.466
 L -128.888,-58.6488 L -128.1,-62.0592 L -127.308,-61.8764 L -127.088,-62.8317 L -113.476,-59.6891 L -113.696,-58.7338
 L -112.904,-58.551 L -113.692,-55.1406 L -114.484,-55.3234 L -115.611,-50.4429 L -114.819,-50.2601 L -115.606,-46.8497
 L -116.398,-47.0325 L -116.618,-46.0772 z
M 116.398,-47.0325 L 115.606,-46.8497 L 114.819,-50.2601 L 115.611,-50.4429 L 114.484,-55.3234 L 113.692,-55.1406
 L 112.904,-58.551 L 113.696,-58.7338 L 113.476,-59.6891 L 127.088,-62.8317 L 127.308,-61.8764 L 128.1,-62.0592
 L 128.888,-58.6488 L 128.096,-58.466 L 129.222,-53.5855 L 130.014,-53.7683 L 130.802,-50.3579 L 130.01,-50.1751
 L 130.23,-49.2198 L 116.618,-46.0772 z
M 77.5722,-46.2793 L 76.7802,-46.0965 L 75.9929,-49.5069 L 76.7849,-49.6897 L 75.6581,-54.5702 L 74.8661,-54.3874
 L 74.0788,-57.7978 L 74.8708,-57.9806 L 74.6502,-58.9359 L 88.2621,-62.0785 L 88.4827,-61.1232 L 89.2746,-61.306
 L 90.062,-57.8956 L 89.27,-57.7128 L 90.3968,-52.8323 L 91.1888,-53.0151 L 91.9761,-49.6047 L 91.1841,-49.4219
 L 91.4047,-48.4666 L 77.7928,-45.324 z
M -91.4047,-48.4666 L -91.1841,-49.4219 L -91.9761,-49.6047 L -91.1888,-53.0151 L -90.3968,-52.8323 L -89.27,-57.7128
 L -90.062,-57.8956 L -89.2746,-61.306 L -88.4827,-61.1232 L -88.2621,-62.0785 L -74.6502,-58.9359 L -74.8708,-57.9806
 L -74.0788,-57.7978 L -74.8661,-54.3874 L -75.6581,-54.5702 L -76.7849,-49.6897 L -75.9929,-49.5069 L -76.7802,-46.0965
 L -77.5722,-46.2793 L -77.7928,-45.324 z
M -72.2168,-47.1156 L -71.9962,-48.0709 L -72.7882,-48.2538 L -72.0009,-51.6642 L -71.2089,-51.4813 L -70.0821,-56.3618
 L -70.8741,-56.5447 L -70.0868,-59.9551 L -69.2948,-59.7722 L -69.0742,-60.7276 L -55.4623,-57.585 L -55.6829,-56.6297
 L -54.8909,-56.4468 L -55.6783,-53.0364 L -56.4702,-53.2193 L -57.597,-48.3388 L -56.805,-48.1559 L -57.5924,-44.7455
 L -58.3843,-44.9284 L -58.6049,-43.9731 z
M 58.3843,-44.9284 L 57.5924,-44.7455 L 56.805,-48.1559 L 57.597,-48.3388 L 56.4702,-53.2193 L 55.6783,-53.0364
 L 54.8909,-56.4468 L 55.6829,-56.6297 L 55.4623,-57.585 L 69.0742,-60.7276 L 69.2948,-59.7722 L 70.0868,-59.9551
 L 70.8741,-56.5447 L 70.0821,-56.3618 L 71.2089,-51.4813 L 72.0009,-51.6642 L 72.7882,-48.2538 L 71.9962,-48.0709
 L 72.2168,-47.1156 L 58.6049,-43.9731 z
M -54.6036,-38.9441 L -54.383,-39.8994 L -55.175,-40.0822 L -54.3876,-43.4926 L -53.5957,-43.3098 L -52.4689,-48.1903
 L -53.2609,-48.3731 L -52.4735,-51.7835 L -51.6816,-51.6007 L -51.461,-52.556 L -37.8491,-49.4134 L -38.0696,-48.4581
 L -37.2777,-48.2753 L -38.065,-44.8649 L -38.857,-45.0477 L -39.9837,-40.1672 L -39.1918,-39.9844 L -39.9791,-36.574
 L -40.7711,-36.7568 L -40.9917,-35.8015 z
M 40.7711,-36.7568 L 39.9791,-36.574 L 39.1918,-39.9844 L 39.9837,-40.1672 L 38.857,-45.0477 L 38.065,-44.8649
 L 37.2777,-48.2753 L 38.0696,-48.4581 L 37.8491,-49.4134 L 51.461,-52.556 L 51.6816,-51.6007 L 52.4735,-51.7835
 L 53.2609,-48.3731 L 52.4689,-48.1903 L 53.5957,-43.3098 L 54.3876,-43.4926 L 55.175,-40.0822 L 54.383,-39.8994
 L 54.6036,-38.9441 L 40.9917,-35.8015 z
M -36.7654,-31.7469 L -36.5448,-32.7022 L -37.3368,-32.8851 L -36.5495,-36.2955 L -35.7575,-36.1126 L -34.6307,-40.9931
 L -35.4227,-41.1759 L -34.6354,-44.5863 L -33.8434,-44.4035 L -33.6228,-45.3588 L -20.0109,-42.2163 L -20.2315,-41.261
 L -19.4395,-41.0781 L -20.2268,-37.6677 L -21.0188,-37.8506 L -22.1456,-32.97 L -21.3536,-32.7872 L -22.1409,-29.3768
 L -22.9329,-29.5596 L -23.1535,-28.6043 z
M 22.9329,-29.5596 L 22.1409,-29.3768 L 21.3536,-32.7872 L 22.1456,-32.97 L 21.0188,-37.8506 L 20.2268,-37.6677
 L 19.4395,-41.0781 L 20.2315,-41.261 L 20.0109,-42.2163 L 33.6228,-45.3588 L 33.8434,-44.4035 L 34.6354,-44.5863
 L 35.4227,-41.1759 L 34.6307,-40.9931 L 35.7575,-36.1126 L 36.5495,-36.2955 L 37.3368,-32.8851 L 36.5448,-32.7022
 L 36.7654,-31.7469 L 23.1535,-28.6043 z
M 101.034,-29.1173 L 100.242,-28.9344 L 99.4548,-32.3448 L 100.247,-32.5277 L 99.1201,-37.4082 L 98.3281,-37.2253
 L 97.5407,-40.6357 L 98.3327,-40.8186 L 98.1122,-41.7739 L 111.724,-44.9164 L 111.945,-43.9611 L 112.737,-44.144
 L 113.524,-40.7336 L 112.732,-40.5507 L 113.859,-35.6702 L 114.651,-35.8531 L 115.438,-32.4427 L 114.646,-32.2598
 L 114.867,-31.3045 L 101.255,-28.162 z
M -114.867,-31.3045 L -114.646,-32.2598 L -115.438,-32.4427 L -114.651,-35.8531 L -113.859,-35.6702 L -112.732,-40.5507
 L -113.524,-40.7336 L -112.737,-44.144 L -111.945,-43.9611 L -111.724,-44.9164 L -98.1122,-41.7739 L -98.3327,-40.8186
 L -97.5407,-40.6357 L -98.3281,-37.2253 L -99.1201,-37.4082 L -100.247,-32.5277 L -99.4548,-32.3448 L -100.242,-28.9344
 L -101.034,-29.1173 L -101.255,-28.162 z
M -134.504,-30.7067 L -134.284,-31.662 L -135.076,-31.8449 L -134.288,-35.2553 L -133.497,-35.0724 L -132.37,-39.953
 L -133.162,-40.1358 L -132.374,-43.5462 L -131.582,-43.3633 L -131.362,-44.3187 L -117.75,-41.1761 L -117.97,-40.2208
 L -117.179,-40.0379 L -117.966,-36.6275 L -118.758,-36.8104 L -119.885,-31.9299 L -119.093,-31.747 L -119.88,-28.3366
 L -120.672,-28.5195 L -120.893,-27.5642 z
M 120.672,-28.5195 L 119.88,-28.3366 L 119.093,-31.747 L 119.885,-31.9299 L 118.758,-36.8104 L 117.966,-36.6275
 L 117.179,-40.0379 L 117.97,-40.2208 L 117.75,-41.1761 L 131.362,-44.3187 L 131.582,-43.3633 L 132.374,-43.5462
 L 133.162,-40.1358 L 132.37,-39.953 L 133.497,-35.0724 L 134.288,-35.2553 L 135.076,-31.8449 L 134.284,-31.662
 L 134.504,-30.7067 L 120.893,-27.5642 z
M -95.6788,-29.9536 L -95.4582,-30.9089 L -96.2502,-31.0917 L -95.4628,-34.5021 L -94.6709,-34.3193 L -93.5441,-39.1998
 L -94.3361,-39.3826 L -93.5487,-42.793 L -92.7567,-42.6102 L -92.5362,-43.5655 L -78.9243,-40.4229 L -79.1448,-39.4676
 L -78.3528,-39.2848 L -79.1402,-35.8744 L -79.9322,-36.0572 L -81.0589,-31.1767 L -80.267,-30.9939 L -81.0543,-27.5835
 L -81.8463,-27.7663 L -82.0668,-26.811 z
M 81.8463,-27.7663 L 81.0543,-27.5835 L 80.267,-30.9939 L 81.0589,-31.1767 L 79.9322,-36.0572 L 79.1402,-35.8744
 L 78.3528,-39.2848 L 79.1448,-39.4676 L 78.9243,-40.4229 L 92.5362,-43.5655 L 92.7567,-42.6102 L 93.5487,-42.793
 L 94.3361,-39.3826 L 93.5441,-39.1998 L 94.6709,-34.3193 L 95.4628,-34.5021 L 96.2502,-31.0917 L 95.4582,-30.9089
 L 95.6788,-29.9536 L 82.0668,-26.811 z
M -76.4909,-28.6026 L -76.2703,-29.5579 L -77.0623,-29.7408 L -76.2749,-33.1512 L -75.483,-32.9683 L -74.3562,-37.8488
 L -75.1482,-38.0316 L -74.3608,-41.442 L -73.5689,-41.2592 L -73.3483,-42.2145 L -59.7364,-39.072 L -59.9569,-38.1167
 L -59.165,-37.9338 L -59.9523,-34.5234 L -60.7443,-34.7063 L -61.871,-29.8257 L -61.0791,-29.6429 L -61.8664,-26.2325
 L -62.6584,-26.4153 L -62.879,-25.46 z
M 62.6584,-26.4153 L 61.8664,-26.2325 L 61.0791,-29.6429 L 61.871,-29.8257 L 60.7443,-34.7063 L 59.9523,-34.5234
 L 59.165,-37.9338 L 59.9569,-38.1167 L 59.7364,-39.072 L 73.3483,-42.2145 L 73.5689,-41.2592 L 74.3608,-41.442
 L 75.1482,-38.0316 L 74.3562,-37.8488 L 75.483,-32.9683 L 76.2749,-33.1512 L 77.0623,-29.7408 L 76.2703,-29.5579
 L 76.4909,-28.6026 L 62.879,-25.46 z
M -58.8776,-20.431 L -58.6571,-21.3864 L -59.4491,-21.5692 L -58.6617,-24.9796 L -57.8697,-24.7968 L -56.743,-29.6773
 L -57.535,-29.8601 L -56.7476,-33.2705 L -55.9556,-33.0877 L -55.7351,-34.043 L -42.1232,-30.9004 L -42.3437,-29.9451
 L -41.5517,-29.7623 L -42.3391,-26.3519 L -43.1311,-26.5347 L -44.2578,-21.6542 L -43.4659,-21.4714 L -44.2532,-18.061
 L -45.0452,-18.2438 L -45.2657,-17.2885 z
M 45.0452,-18.2438 L 44.2532,-18.061 L 43.4659,-21.4714 L 44.2578,-21.6542 L 43.1311,-26.5347 L 42.3391,-26.3519
 L 41.5517,-29.7623 L 42.3437,-29.9451 L 42.1232,-30.9004 L 55.7351,-34.043 L 55.9556,-33.0877 L 56.7476,-33.2705
 L 57.535,-29.8601 L 56.743,-29.6773 L 57.8697,-24.7968 L 58.6617,-24.9796 L 59.4491,-21.5692 L 58.6571,-21.3864
 L 58.8776,-20.431 L 45.2657,-17.2885 z
M -20.8393,-16.2676 L -20.6187,-17.2229 L -21.4107,-17.4057 L -20.6234,-20.8161 L -19.8314,-20.6333 L -18.7047,-25.5138
 L -19.4966,-25.6966 L -18.7093,-29.107 L -17.9173,-28.9242 L -17.6967,-29.8795 L -4.08482,-26.7369 L -4.30537,-25.7816
 L -3.5134,-25.5988 L -4.30075,-22.1884 L -5.09273,-22.3712 L -6.21948,-17.4907 L -5.42751,-17.3079 L -6.21486,-13.8975
 L -7.00684,-14.0803 L -7.22739,-13.125 z
M 7.00684,-14.0803 L 6.21486,-13.8975 L 5.42751,-17.3079 L 6.21948,-17.4907 L 5.09273,-22.3712 L 4.30075,-22.1884
 L 3.5134,-25.5988 L 4.30537,-25.7816 L 4.08482,-26.7369 L 17.6967,-29.8795 L 17.9173,-28.9242 L 18.7093,-29.107
 L 19.4966,-25.6966 L 18.7047,-25.5138 L 19.8314,-20.6333 L 20.6234,-20.8161 L 21.4107,-17.4057 L 20.6187,-17.2229
 L 20.8393,-16.2676 L 7.22739,-13.125 z
M -141.078,-25.2726 L -141.261,-25.315 L -141.438,-25.38 L -141.605,-25.4667 L -141.76,-25.5737 L -141.901,-25.6992
 L -142.024,-25.8414 L -142.129,-25.9979 L -142.213,-26.1663 L -142.276,-26.344 L -142.316,-26.5281 L -142.332,-26.7158
 L -142.325,-26.904 L -142.294,-27.0899 L -142.24,-27.2704 L -142.164,-27.4427 L -142.067,-27.6042 L -141.951,-27.7522
 L -141.817,-27.8845 L -141.667,-27.9989 L -141.504,-28.0937 L -141.331,-28.1673 L -141.15,-28.2186 L -140.963,-28.2467
 L -140.775,-28.2513 L -140.588,-28.2323 L -140.404,-28.1899 L -140.227,-28.1249 L -140.06,-28.0382 L -139.905,-27.9312
 L -139.765,-27.8057 L -139.641,-27.6635 L -139.536,-27.507 L -139.452,-27.3385 L -139.389,-27.1609 L -139.349,-26.9767
 L -139.333,-26.7891 L -139.34,-26.6009 L -139.371,-26.415 L -139.425,-26.2345 L -139.501,-26.0621 L -139.598,-25.9007
 L -139.714,-25.7526 L -139.849,-25.6204 L -139.998,-25.506 L -140.161,-25.4112 L -140.334,-25.3376 L -140.516,-25.2863
 L -140.702,-25.2581 L -140.89,-25.2535 z
M 140.702,-25.2581 L 140.516,-25.2863 L 140.334,-25.3376 L 140.161,-25.4112 L 139.998,-25.506 L 139.849,-25.6204
 L 139.714,-25.7526 L 139.598,-25.9007 L 139.501,-26.0621 L 139.425,-26.2345 L 139.371,-26.415 L 139.34,-26.6009
 L 139.333,-26.7891 L 139.349,-26.9767 L 139.389,-27.1609 L 139.452,-27.3385 L 139.536,-27.507 L 139.641,-27.6635
 L 139.765,-27.8057 L 139.905,-27.9312 L 140.06,-28.0382 L 140.227,-28.1249 L 140.404,-28.1899 L 140.588,-28.2323
 L 140.775,-28.2513 L 140.963,-28.2467 L 141.15,-28.2186 L 141.331,-28.1673 L 141.504,-28.0937 L 141.667,-27.9989
 L 141.817,-27.8845 L 141.951,-27.7522 L 142.067,-27.6042 L 142.164,-27.4427 L 142.24,-27.2704 L 142.294,-27.0899
 L 142.325,-26.904 L 142.332,-26.7158 L 142.316,-26.5281 L 142.276,-26.344 L 142.213,-26.1663 L 142.129,-25.9979
 L 142.024,-25.8414 L 141.901,-25.6992 L 141.76,-25.5737 L 141.605,-25.4667 L 141.438,-25.38 L 141.261,-25.315
 L 141.078,-25.2726 L 140.89,-25.2535 z
M -41.0395,-13.2339 L -40.8189,-14.1892 L -41.6109,-14.372 L -40.8235,-17.7824 L -40.0316,-17.5996 L -38.9048,-22.4801
 L -39.6968,-22.6629 L -38.9094,-26.0733 L -38.1175,-25.8905 L -37.8969,-26.8458 L -24.285,-23.7032 L -24.5055,-22.7479
 L -23.7136,-22.5651 L -24.5009,-19.1547 L -25.2929,-19.3375 L -26.4196,-14.457 L -25.6277,-14.2742 L -26.415,-10.8638
 L -27.207,-11.0466 L -27.4276,-10.0913 z
M 27.207,-11.0466 L 26.415,-10.8638 L 25.6277,-14.2742 L 26.4196,-14.457 L 25.2929,-19.3375 L 24.5009,-19.1547
 L 23.7136,-22.5651 L 24.5055,-22.7479 L 24.285,-23.7032 L 37.8969,-26.8458 L 38.1175,-25.8905 L 38.9094,-26.0733
 L 39.6968,-22.6629 L 38.9048,-22.4801 L 40.0316,-17.5996 L 40.8235,-17.7824 L 41.6109,-14.372 L 40.8189,-14.1892
 L 41.0395,-13.2339 L 27.4276,-10.0913 z
M 23.7924,-0.320068 L 23.6061,-0.348236 L 23.4249,-0.399521 L 23.2515,-0.473114 L 23.0887,-0.567871 L 22.939,-0.682281
 L 22.8049,-0.814545 L 22.6884,-0.962601 L 22.5914,-1.12405 L 22.5154,-1.2964 L 22.4616,-1.47693 L 22.4308,-1.66278
 L 22.4236,-1.851 L 22.44,-2.03867 L 22.4798,-2.22278 L 22.5424,-2.40045 L 22.6267,-2.56889 L 22.7315,-2.72542
 L 22.8551,-2.86758 L 22.9955,-2.99315 L 23.1506,-3.1001 L 23.3178,-3.1868 L 23.4946,-3.25185 L 23.6781,-3.29422
 L 23.8655,-3.31326 L 24.0539,-3.30864 L 24.2401,-3.28049 L 24.4214,-3.2292 L 24.5948,-3.15558 L 24.7576,-3.06084
 L 24.9072,-2.94641 L 25.0413,-2.81415 L 25.1578,-2.66612 L 25.2548,-2.50465 L 25.3309,-2.33231 L 25.3847,-2.15178
 L 25.4155,-1.96594 L 25.4227,-1.77771 L 25.4063,-1.59006 L 25.3665,-1.40593 L 25.3039,-1.22826 L 25.2195,-1.05983
 L 25.1147,-0.90329 L 24.9912,-0.761124 L 24.8507,-0.635574 L 24.6957,-0.528595 L 24.5284,-0.44191 L 24.3517,-0.376877
 L 24.1681,-0.334503 L 23.9807,-0.31546 z
M -24.1681,-0.334503 L -24.3517,-0.376877 L -24.5284,-0.44191 L -24.6957,-0.528595 L -24.8507,-0.635574 L -24.9912,-0.761124
 L -25.1147,-0.90329 L -25.2195,-1.05983 L -25.3039,-1.22826 L -25.3665,-1.40593 L -25.4063,-1.59006 L -25.4227,-1.77771
 L -25.4155,-1.96594 L -25.3847,-2.15178 L -25.3309,-2.33231 L -25.2548,-2.50465 L -25.1578,-2.66612 L -25.0413,-2.81415
 L -24.9072,-2.94641 L -24.7576,-3.06084 L -24.5948,-3.15558 L -24.4214,-3.2292 L -24.2401,-3.28049 L -24.0539,-3.30864
 L -23.8655,-3.31326 L -23.6781,-3.29422 L -23.4946,-3.25185 L -23.3178,-3.1868 L -23.1506,-3.1001 L -22.9955,-2.99315
 L -22.8551,-2.86758 L -22.7315,-2.72542 L -22.6267,-2.56889 L -22.5424,-2.40045 L -22.4798,-2.22278 L -22.44,-2.03867
 L -22.4236,-1.851 L -22.4308,-1.66278 L -22.4616,-1.47693 L -22.5154,-1.2964 L -22.5914,-1.12405 L -22.6884,-0.962601
 L -22.8049,-0.814545 L -22.939,-0.682281 L -23.0887,-0.567871 L -23.2515,-0.473114 L -23.4249,-0.399521 L -23.6061,-0.348236
 L -23.7924,-0.320068 L -23.9807,-0.31546 z
" stroke="black" fill="lightgray" stroke-width="0.5"/></svg>
